<mxfile host="app.diagrams.net" agent="Mozilla/5.0 (Windows NT 10.0; Win64; x64) AppleWebKit/537.36 (KHTML, like Gecko) Chrome/132.0.0.0 Safari/537.36" version="27.0.6">
  <diagram id="C5RBs43oDa-KdzZeNtuy" name="Page-1">
    <mxGraphModel grid="1" page="1" gridSize="10" guides="1" tooltips="1" connect="1" arrows="1" fold="1" pageScale="1" pageWidth="827" pageHeight="1169" math="0" shadow="0">
      <root>
        <mxCell id="WIyWlLk6GJQsqaUBKTNV-0" />
        <mxCell id="WIyWlLk6GJQsqaUBKTNV-1" parent="WIyWlLk6GJQsqaUBKTNV-0" />
        <mxCell id="qe04x3mOyRm4tF5T4k0E-14" value="" style="rounded=0;whiteSpace=wrap;html=1;" vertex="1" parent="WIyWlLk6GJQsqaUBKTNV-1">
          <mxGeometry x="160" y="820" width="1120" height="825" as="geometry" />
        </mxCell>
        <mxCell id="qe04x3mOyRm4tF5T4k0E-13" value="" style="rounded=0;whiteSpace=wrap;html=1;" vertex="1" parent="WIyWlLk6GJQsqaUBKTNV-1">
          <mxGeometry x="585" y="1202" width="655" height="420" as="geometry" />
        </mxCell>
        <mxCell id="qe04x3mOyRm4tF5T4k0E-12" value="" style="rounded=0;whiteSpace=wrap;html=1;" vertex="1" parent="WIyWlLk6GJQsqaUBKTNV-1">
          <mxGeometry x="585" y="845" width="655" height="327.5" as="geometry" />
        </mxCell>
        <mxCell id="7GlUSVLypJ4G9-vJ-Vu1-25" value="" style="rounded=0;whiteSpace=wrap;html=1;" vertex="1" parent="WIyWlLk6GJQsqaUBKTNV-1">
          <mxGeometry x="160" y="30" width="2640" height="740" as="geometry" />
        </mxCell>
        <mxCell id="1SzBsBPXZqBtcYk88lzq-5" style="edgeStyle=orthogonalEdgeStyle;rounded=0;orthogonalLoop=1;jettySize=auto;html=1;exitX=1;exitY=0.5;exitDx=0;exitDy=0;entryX=0;entryY=0.5;entryDx=0;entryDy=0;" edge="1" parent="WIyWlLk6GJQsqaUBKTNV-1" source="1SzBsBPXZqBtcYk88lzq-0" target="1SzBsBPXZqBtcYk88lzq-4">
          <mxGeometry relative="1" as="geometry" />
        </mxCell>
        <mxCell id="1SzBsBPXZqBtcYk88lzq-0" value="" style="ellipse;html=1;shape=endState;fillColor=#000000;strokeColor=#FFFF00;" vertex="1" parent="WIyWlLk6GJQsqaUBKTNV-1">
          <mxGeometry x="185" y="302" width="30" height="30" as="geometry" />
        </mxCell>
        <mxCell id="1SzBsBPXZqBtcYk88lzq-4" value="Iniciar" style="rounded=1;whiteSpace=wrap;html=1;" vertex="1" parent="WIyWlLk6GJQsqaUBKTNV-1">
          <mxGeometry x="265" y="298.25" width="100" height="37.5" as="geometry" />
        </mxCell>
        <mxCell id="1SzBsBPXZqBtcYk88lzq-33" style="edgeStyle=orthogonalEdgeStyle;rounded=0;orthogonalLoop=1;jettySize=auto;html=1;entryX=0;entryY=0.5;entryDx=0;entryDy=0;" edge="1" parent="WIyWlLk6GJQsqaUBKTNV-1" source="1SzBsBPXZqBtcYk88lzq-4" target="1SzBsBPXZqBtcYk88lzq-38">
          <mxGeometry relative="1" as="geometry">
            <mxPoint x="605.0000000000002" y="228.7500000000001" as="targetPoint" />
            <mxPoint x="475" y="275" as="sourcePoint" />
          </mxGeometry>
        </mxCell>
        <mxCell id="1SzBsBPXZqBtcYk88lzq-40" style="edgeStyle=orthogonalEdgeStyle;rounded=0;orthogonalLoop=1;jettySize=auto;html=1;exitX=1;exitY=0.5;exitDx=0;exitDy=0;entryX=0;entryY=0.5;entryDx=0;entryDy=0;" edge="1" parent="WIyWlLk6GJQsqaUBKTNV-1" source="1SzBsBPXZqBtcYk88lzq-38" target="1SzBsBPXZqBtcYk88lzq-39">
          <mxGeometry relative="1" as="geometry" />
        </mxCell>
        <mxCell id="1SzBsBPXZqBtcYk88lzq-46" value="Sim" style="edgeLabel;html=1;align=center;verticalAlign=middle;resizable=0;points=[];" connectable="0" vertex="1" parent="1SzBsBPXZqBtcYk88lzq-40">
          <mxGeometry x="-0.2259" y="-1" relative="1" as="geometry">
            <mxPoint x="-12" y="-1" as="offset" />
          </mxGeometry>
        </mxCell>
        <mxCell id="1SzBsBPXZqBtcYk88lzq-43" style="edgeStyle=orthogonalEdgeStyle;rounded=0;orthogonalLoop=1;jettySize=auto;html=1;exitX=0.5;exitY=0;exitDx=0;exitDy=0;entryX=0;entryY=0.5;entryDx=0;entryDy=0;" edge="1" parent="WIyWlLk6GJQsqaUBKTNV-1" source="1SzBsBPXZqBtcYk88lzq-38" target="1SzBsBPXZqBtcYk88lzq-42">
          <mxGeometry relative="1" as="geometry" />
        </mxCell>
        <mxCell id="1SzBsBPXZqBtcYk88lzq-44" value="Não" style="edgeLabel;html=1;align=center;verticalAlign=middle;resizable=0;points=[];" connectable="0" vertex="1" parent="1SzBsBPXZqBtcYk88lzq-43">
          <mxGeometry x="0.3711" relative="1" as="geometry">
            <mxPoint x="-65" y="66" as="offset" />
          </mxGeometry>
        </mxCell>
        <mxCell id="1SzBsBPXZqBtcYk88lzq-38" value="É cadastrado?" style="rhombus;whiteSpace=wrap;html=1;" vertex="1" parent="WIyWlLk6GJQsqaUBKTNV-1">
          <mxGeometry x="450" y="346.75" width="120" height="80" as="geometry" />
        </mxCell>
        <mxCell id="RYv_guV0oGGCcxDcEiJ_-85" style="edgeStyle=orthogonalEdgeStyle;rounded=0;orthogonalLoop=1;jettySize=auto;html=1;exitX=1;exitY=0.5;exitDx=0;exitDy=0;entryX=0;entryY=0.5;entryDx=0;entryDy=0;" edge="1" parent="WIyWlLk6GJQsqaUBKTNV-1" source="1SzBsBPXZqBtcYk88lzq-39" target="RYv_guV0oGGCcxDcEiJ_-84">
          <mxGeometry relative="1" as="geometry">
            <Array as="points">
              <mxPoint x="771" y="387" />
              <mxPoint x="771" y="318" />
            </Array>
          </mxGeometry>
        </mxCell>
        <mxCell id="1SzBsBPXZqBtcYk88lzq-39" value="Logar-se" style="rounded=1;whiteSpace=wrap;html=1;" vertex="1" parent="WIyWlLk6GJQsqaUBKTNV-1">
          <mxGeometry x="640" y="368.12" width="100" height="37.5" as="geometry" />
        </mxCell>
        <mxCell id="1SzBsBPXZqBtcYk88lzq-45" style="edgeStyle=orthogonalEdgeStyle;rounded=0;orthogonalLoop=1;jettySize=auto;html=1;exitX=0.5;exitY=1;exitDx=0;exitDy=0;entryX=0.5;entryY=0;entryDx=0;entryDy=0;" edge="1" parent="WIyWlLk6GJQsqaUBKTNV-1" source="1SzBsBPXZqBtcYk88lzq-42" target="1SzBsBPXZqBtcYk88lzq-39">
          <mxGeometry relative="1" as="geometry" />
        </mxCell>
        <mxCell id="1SzBsBPXZqBtcYk88lzq-42" value="Cadastrar-se" style="rounded=1;whiteSpace=wrap;html=1;" vertex="1" parent="WIyWlLk6GJQsqaUBKTNV-1">
          <mxGeometry x="640" y="249.87" width="100" height="37.5" as="geometry" />
        </mxCell>
        <mxCell id="XJXXXrBX6UF0R7sf1k8g-0" style="edgeStyle=orthogonalEdgeStyle;rounded=0;orthogonalLoop=1;jettySize=auto;html=1;exitX=1;exitY=0.5;exitDx=0;exitDy=0;entryX=0;entryY=0.5;entryDx=0;entryDy=0;" edge="1" parent="WIyWlLk6GJQsqaUBKTNV-1" source="XJXXXrBX6UF0R7sf1k8g-1" target="XJXXXrBX6UF0R7sf1k8g-3">
          <mxGeometry relative="1" as="geometry" />
        </mxCell>
        <mxCell id="XJXXXrBX6UF0R7sf1k8g-1" value="" style="ellipse;html=1;shape=endState;fillColor=#000000;strokeColor=#00FFFF;" vertex="1" parent="WIyWlLk6GJQsqaUBKTNV-1">
          <mxGeometry x="185" y="1172.5" width="30" height="30" as="geometry" />
        </mxCell>
        <mxCell id="XJXXXrBX6UF0R7sf1k8g-2" style="edgeStyle=orthogonalEdgeStyle;rounded=0;orthogonalLoop=1;jettySize=auto;html=1;exitX=1;exitY=0.5;exitDx=0;exitDy=0;entryX=0;entryY=0.5;entryDx=0;entryDy=0;" edge="1" parent="WIyWlLk6GJQsqaUBKTNV-1" source="XJXXXrBX6UF0R7sf1k8g-3" target="XJXXXrBX6UF0R7sf1k8g-7">
          <mxGeometry relative="1" as="geometry" />
        </mxCell>
        <mxCell id="XJXXXrBX6UF0R7sf1k8g-3" value="Iniciar Dev/Adm" style="rounded=1;whiteSpace=wrap;html=1;" vertex="1" parent="WIyWlLk6GJQsqaUBKTNV-1">
          <mxGeometry x="265" y="1168.75" width="100" height="37.5" as="geometry" />
        </mxCell>
        <mxCell id="XJXXXrBX6UF0R7sf1k8g-12" style="edgeStyle=orthogonalEdgeStyle;rounded=0;orthogonalLoop=1;jettySize=auto;html=1;entryX=0;entryY=0.5;entryDx=0;entryDy=0;" edge="1" parent="WIyWlLk6GJQsqaUBKTNV-1" source="XJXXXrBX6UF0R7sf1k8g-7" target="XJXXXrBX6UF0R7sf1k8g-10">
          <mxGeometry relative="1" as="geometry">
            <mxPoint x="660" y="1345" as="targetPoint" />
            <Array as="points">
              <mxPoint x="610" y="1188" />
              <mxPoint x="610" y="1343" />
              <mxPoint x="655" y="1343" />
            </Array>
          </mxGeometry>
        </mxCell>
        <mxCell id="7GlUSVLypJ4G9-vJ-Vu1-29" value="Adm" style="edgeLabel;html=1;align=center;verticalAlign=middle;resizable=0;points=[];" connectable="0" vertex="1" parent="XJXXXrBX6UF0R7sf1k8g-12">
          <mxGeometry x="-0.4436" y="-1" relative="1" as="geometry">
            <mxPoint y="4" as="offset" />
          </mxGeometry>
        </mxCell>
        <mxCell id="XJXXXrBX6UF0R7sf1k8g-7" value="É desenvolvedor ou admnistrador?" style="rhombus;whiteSpace=wrap;html=1;" vertex="1" parent="WIyWlLk6GJQsqaUBKTNV-1">
          <mxGeometry x="414" y="1135" width="150" height="105" as="geometry" />
        </mxCell>
        <mxCell id="dobvGp4MOFqiP2ddSErw-1" value="" style="edgeStyle=orthogonalEdgeStyle;rounded=0;orthogonalLoop=1;jettySize=auto;html=1;" edge="1" parent="WIyWlLk6GJQsqaUBKTNV-1" source="XJXXXrBX6UF0R7sf1k8g-9" target="dobvGp4MOFqiP2ddSErw-0">
          <mxGeometry relative="1" as="geometry" />
        </mxCell>
        <mxCell id="XJXXXrBX6UF0R7sf1k8g-9" value="Logar-se" style="rounded=1;whiteSpace=wrap;html=1;" vertex="1" parent="WIyWlLk6GJQsqaUBKTNV-1">
          <mxGeometry x="655" y="1042.25" width="100" height="37.5" as="geometry" />
        </mxCell>
        <mxCell id="dobvGp4MOFqiP2ddSErw-3" value="" style="edgeStyle=orthogonalEdgeStyle;rounded=0;orthogonalLoop=1;jettySize=auto;html=1;" edge="1" parent="WIyWlLk6GJQsqaUBKTNV-1" source="XJXXXrBX6UF0R7sf1k8g-10" target="dobvGp4MOFqiP2ddSErw-2">
          <mxGeometry relative="1" as="geometry" />
        </mxCell>
        <mxCell id="XJXXXrBX6UF0R7sf1k8g-10" value="Logar-se" style="rounded=1;whiteSpace=wrap;html=1;" vertex="1" parent="WIyWlLk6GJQsqaUBKTNV-1">
          <mxGeometry x="655" y="1323.75" width="100" height="37.5" as="geometry" />
        </mxCell>
        <mxCell id="XJXXXrBX6UF0R7sf1k8g-11" style="edgeStyle=orthogonalEdgeStyle;rounded=0;orthogonalLoop=1;jettySize=auto;html=1;" edge="1" parent="WIyWlLk6GJQsqaUBKTNV-1" source="XJXXXrBX6UF0R7sf1k8g-7" target="XJXXXrBX6UF0R7sf1k8g-9">
          <mxGeometry relative="1" as="geometry">
            <Array as="points">
              <mxPoint x="610" y="1188" />
              <mxPoint x="610" y="1061" />
            </Array>
          </mxGeometry>
        </mxCell>
        <mxCell id="7GlUSVLypJ4G9-vJ-Vu1-28" value="Dev" style="edgeLabel;html=1;align=center;verticalAlign=middle;resizable=0;points=[];" connectable="0" vertex="1" parent="XJXXXrBX6UF0R7sf1k8g-11">
          <mxGeometry x="-0.3754" relative="1" as="geometry">
            <mxPoint y="-6" as="offset" />
          </mxGeometry>
        </mxCell>
        <mxCell id="7GlUSVLypJ4G9-vJ-Vu1-32" style="edgeStyle=orthogonalEdgeStyle;rounded=0;orthogonalLoop=1;jettySize=auto;html=1;entryX=0;entryY=0.5;entryDx=0;entryDy=0;" edge="1" parent="WIyWlLk6GJQsqaUBKTNV-1" source="dobvGp4MOFqiP2ddSErw-0" target="7GlUSVLypJ4G9-vJ-Vu1-31">
          <mxGeometry relative="1" as="geometry" />
        </mxCell>
        <mxCell id="7GlUSVLypJ4G9-vJ-Vu1-38" style="edgeStyle=orthogonalEdgeStyle;rounded=0;orthogonalLoop=1;jettySize=auto;html=1;exitX=0.5;exitY=0;exitDx=0;exitDy=0;entryX=0.5;entryY=1;entryDx=0;entryDy=0;" edge="1" parent="WIyWlLk6GJQsqaUBKTNV-1" source="dobvGp4MOFqiP2ddSErw-0" target="7GlUSVLypJ4G9-vJ-Vu1-33">
          <mxGeometry relative="1" as="geometry" />
        </mxCell>
        <mxCell id="7GlUSVLypJ4G9-vJ-Vu1-39" style="edgeStyle=orthogonalEdgeStyle;rounded=0;orthogonalLoop=1;jettySize=auto;html=1;exitX=0.5;exitY=0;exitDx=0;exitDy=0;entryX=0.5;entryY=1;entryDx=0;entryDy=0;" edge="1" parent="WIyWlLk6GJQsqaUBKTNV-1" source="dobvGp4MOFqiP2ddSErw-0" target="7GlUSVLypJ4G9-vJ-Vu1-35">
          <mxGeometry relative="1" as="geometry" />
        </mxCell>
        <mxCell id="dobvGp4MOFqiP2ddSErw-0" value="Tela principal" style="whiteSpace=wrap;html=1;rounded=1;" vertex="1" parent="WIyWlLk6GJQsqaUBKTNV-1">
          <mxGeometry x="825" y="1031" width="120" height="60" as="geometry" />
        </mxCell>
        <mxCell id="qe04x3mOyRm4tF5T4k0E-8" style="edgeStyle=orthogonalEdgeStyle;rounded=0;orthogonalLoop=1;jettySize=auto;html=1;exitX=0.5;exitY=1;exitDx=0;exitDy=0;entryX=1;entryY=0.5;entryDx=0;entryDy=0;" edge="1" parent="WIyWlLk6GJQsqaUBKTNV-1" source="dobvGp4MOFqiP2ddSErw-2" target="qe04x3mOyRm4tF5T4k0E-2">
          <mxGeometry relative="1" as="geometry" />
        </mxCell>
        <mxCell id="qe04x3mOyRm4tF5T4k0E-9" style="edgeStyle=orthogonalEdgeStyle;rounded=0;orthogonalLoop=1;jettySize=auto;html=1;exitX=0.5;exitY=1;exitDx=0;exitDy=0;entryX=0;entryY=0.5;entryDx=0;entryDy=0;" edge="1" parent="WIyWlLk6GJQsqaUBKTNV-1" source="dobvGp4MOFqiP2ddSErw-2" target="qe04x3mOyRm4tF5T4k0E-3">
          <mxGeometry relative="1" as="geometry" />
        </mxCell>
        <mxCell id="qe04x3mOyRm4tF5T4k0E-10" style="edgeStyle=orthogonalEdgeStyle;rounded=0;orthogonalLoop=1;jettySize=auto;html=1;exitX=0.5;exitY=1;exitDx=0;exitDy=0;entryX=1;entryY=0.5;entryDx=0;entryDy=0;" edge="1" parent="WIyWlLk6GJQsqaUBKTNV-1" source="dobvGp4MOFqiP2ddSErw-2" target="qe04x3mOyRm4tF5T4k0E-4">
          <mxGeometry relative="1" as="geometry" />
        </mxCell>
        <mxCell id="qe04x3mOyRm4tF5T4k0E-11" style="edgeStyle=orthogonalEdgeStyle;rounded=0;orthogonalLoop=1;jettySize=auto;html=1;exitX=0.5;exitY=1;exitDx=0;exitDy=0;entryX=0;entryY=0.5;entryDx=0;entryDy=0;" edge="1" parent="WIyWlLk6GJQsqaUBKTNV-1" source="dobvGp4MOFqiP2ddSErw-2" target="qe04x3mOyRm4tF5T4k0E-5">
          <mxGeometry relative="1" as="geometry" />
        </mxCell>
        <mxCell id="dobvGp4MOFqiP2ddSErw-2" value="Tela principal" style="whiteSpace=wrap;html=1;rounded=1;" vertex="1" parent="WIyWlLk6GJQsqaUBKTNV-1">
          <mxGeometry x="825" y="1312.5" width="120" height="60" as="geometry" />
        </mxCell>
        <mxCell id="RYv_guV0oGGCcxDcEiJ_-9" style="edgeStyle=orthogonalEdgeStyle;rounded=0;orthogonalLoop=1;jettySize=auto;html=1;exitX=1;exitY=0.5;exitDx=0;exitDy=0;entryX=0;entryY=0.5;entryDx=0;entryDy=0;" edge="1" parent="WIyWlLk6GJQsqaUBKTNV-1" source="7GlUSVLypJ4G9-vJ-Vu1-7" target="RYv_guV0oGGCcxDcEiJ_-8">
          <mxGeometry relative="1" as="geometry">
            <mxPoint x="1081" y="317" as="sourcePoint" />
            <Array as="points">
              <mxPoint x="1101" y="318" />
              <mxPoint x="1121" y="317" />
            </Array>
          </mxGeometry>
        </mxCell>
        <mxCell id="7GlUSVLypJ4G9-vJ-Vu1-11" style="edgeStyle=orthogonalEdgeStyle;rounded=0;orthogonalLoop=1;jettySize=auto;html=1;exitX=0.5;exitY=1;exitDx=0;exitDy=0;entryX=0.5;entryY=0;entryDx=0;entryDy=0;" edge="1" parent="WIyWlLk6GJQsqaUBKTNV-1" source="RYv_guV0oGGCcxDcEiJ_-8" target="RYv_guV0oGGCcxDcEiJ_-13">
          <mxGeometry relative="1" as="geometry" />
        </mxCell>
        <mxCell id="RYv_guV0oGGCcxDcEiJ_-8" value="Disponibiliza informações do jogo escolhido e suas avaliações" style="rounded=1;whiteSpace=wrap;html=1;" vertex="1" parent="WIyWlLk6GJQsqaUBKTNV-1">
          <mxGeometry x="1111" y="286" width="120" height="62.75" as="geometry" />
        </mxCell>
        <mxCell id="RYv_guV0oGGCcxDcEiJ_-18" style="edgeStyle=orthogonalEdgeStyle;rounded=0;orthogonalLoop=1;jettySize=auto;html=1;exitX=1;exitY=0.5;exitDx=0;exitDy=0;entryX=0.5;entryY=1;entryDx=0;entryDy=0;" edge="1" parent="WIyWlLk6GJQsqaUBKTNV-1" source="RYv_guV0oGGCcxDcEiJ_-13" target="7GlUSVLypJ4G9-vJ-Vu1-1">
          <mxGeometry relative="1" as="geometry">
            <mxPoint x="1011" y="360" as="targetPoint" />
            <Array as="points">
              <mxPoint x="1341" y="420" />
            </Array>
          </mxGeometry>
        </mxCell>
        <mxCell id="7GlUSVLypJ4G9-vJ-Vu1-12" value="Sim" style="edgeLabel;html=1;align=center;verticalAlign=middle;resizable=0;points=[];" connectable="0" vertex="1" parent="RYv_guV0oGGCcxDcEiJ_-18">
          <mxGeometry x="-0.8574" relative="1" as="geometry">
            <mxPoint x="5" y="-1" as="offset" />
          </mxGeometry>
        </mxCell>
        <mxCell id="7GlUSVLypJ4G9-vJ-Vu1-14" style="edgeStyle=orthogonalEdgeStyle;rounded=0;orthogonalLoop=1;jettySize=auto;html=1;exitX=0;exitY=0.5;exitDx=0;exitDy=0;entryX=0.75;entryY=1;entryDx=0;entryDy=0;" edge="1" parent="WIyWlLk6GJQsqaUBKTNV-1" source="RYv_guV0oGGCcxDcEiJ_-13" target="RYv_guV0oGGCcxDcEiJ_-84">
          <mxGeometry relative="1" as="geometry" />
        </mxCell>
        <mxCell id="7GlUSVLypJ4G9-vJ-Vu1-15" value="Não" style="edgeLabel;html=1;align=center;verticalAlign=middle;resizable=0;points=[];" connectable="0" vertex="1" parent="7GlUSVLypJ4G9-vJ-Vu1-14">
          <mxGeometry x="-0.79" relative="1" as="geometry">
            <mxPoint x="13" as="offset" />
          </mxGeometry>
        </mxCell>
        <mxCell id="RYv_guV0oGGCcxDcEiJ_-13" value="Adicionar ao carrinho?" style="rhombus;whiteSpace=wrap;html=1;" vertex="1" parent="WIyWlLk6GJQsqaUBKTNV-1">
          <mxGeometry x="1101" y="380" width="140" height="80" as="geometry" />
        </mxCell>
        <mxCell id="RYv_guV0oGGCcxDcEiJ_-24" style="edgeStyle=orthogonalEdgeStyle;rounded=0;orthogonalLoop=1;jettySize=auto;html=1;exitX=1;exitY=0.5;exitDx=0;exitDy=0;entryX=0;entryY=0.5;entryDx=0;entryDy=0;" edge="1" parent="WIyWlLk6GJQsqaUBKTNV-1" source="7GlUSVLypJ4G9-vJ-Vu1-1" target="7GlUSVLypJ4G9-vJ-Vu1-9">
          <mxGeometry relative="1" as="geometry">
            <mxPoint x="1381" y="198" as="targetPoint" />
          </mxGeometry>
        </mxCell>
        <mxCell id="RYv_guV0oGGCcxDcEiJ_-27" style="edgeStyle=orthogonalEdgeStyle;rounded=0;orthogonalLoop=1;jettySize=auto;html=1;exitX=1;exitY=0.515;exitDx=0;exitDy=0;entryX=0;entryY=0.5;entryDx=0;entryDy=0;exitPerimeter=0;" edge="1" parent="WIyWlLk6GJQsqaUBKTNV-1" source="7GlUSVLypJ4G9-vJ-Vu1-9" target="RYv_guV0oGGCcxDcEiJ_-26">
          <mxGeometry relative="1" as="geometry">
            <mxPoint x="1521" y="198" as="sourcePoint" />
          </mxGeometry>
        </mxCell>
        <mxCell id="RYv_guV0oGGCcxDcEiJ_-31" style="edgeStyle=orthogonalEdgeStyle;rounded=0;orthogonalLoop=1;jettySize=auto;html=1;exitX=1;exitY=0.5;exitDx=0;exitDy=0;entryX=0;entryY=0.5;entryDx=0;entryDy=0;" edge="1" parent="WIyWlLk6GJQsqaUBKTNV-1" source="RYv_guV0oGGCcxDcEiJ_-26" target="RYv_guV0oGGCcxDcEiJ_-30">
          <mxGeometry relative="1" as="geometry">
            <mxPoint x="1785" y="318.24499999999966" as="sourcePoint" />
          </mxGeometry>
        </mxCell>
        <mxCell id="RYv_guV0oGGCcxDcEiJ_-32" value="PIX" style="edgeLabel;html=1;align=center;verticalAlign=middle;resizable=0;points=[];" connectable="0" vertex="1" parent="RYv_guV0oGGCcxDcEiJ_-31">
          <mxGeometry x="-0.1714" y="1" relative="1" as="geometry">
            <mxPoint y="11" as="offset" />
          </mxGeometry>
        </mxCell>
        <mxCell id="RYv_guV0oGGCcxDcEiJ_-40" style="edgeStyle=orthogonalEdgeStyle;rounded=0;orthogonalLoop=1;jettySize=auto;html=1;exitX=1;exitY=0.5;exitDx=0;exitDy=0;entryX=0;entryY=0.5;entryDx=0;entryDy=0;" edge="1" parent="WIyWlLk6GJQsqaUBKTNV-1" source="RYv_guV0oGGCcxDcEiJ_-26" target="RYv_guV0oGGCcxDcEiJ_-64">
          <mxGeometry relative="1" as="geometry">
            <mxPoint x="1875" y="392.74" as="targetPoint" />
            <mxPoint x="1785" y="318.24499999999966" as="sourcePoint" />
          </mxGeometry>
        </mxCell>
        <mxCell id="RYv_guV0oGGCcxDcEiJ_-41" value="Cartão" style="edgeLabel;html=1;align=center;verticalAlign=middle;resizable=0;points=[];" connectable="0" vertex="1" parent="RYv_guV0oGGCcxDcEiJ_-40">
          <mxGeometry x="-0.0068" relative="1" as="geometry">
            <mxPoint y="-22" as="offset" />
          </mxGeometry>
        </mxCell>
        <mxCell id="RYv_guV0oGGCcxDcEiJ_-26" value="Método de pagamento: Cartão ou PIX?" style="rhombus;whiteSpace=wrap;html=1;" vertex="1" parent="WIyWlLk6GJQsqaUBKTNV-1">
          <mxGeometry x="1604" y="246.56" width="207" height="142.38" as="geometry" />
        </mxCell>
        <mxCell id="RYv_guV0oGGCcxDcEiJ_-45" style="edgeStyle=orthogonalEdgeStyle;rounded=0;orthogonalLoop=1;jettySize=auto;html=1;exitX=1;exitY=0.5;exitDx=0;exitDy=0;" edge="1" parent="WIyWlLk6GJQsqaUBKTNV-1" source="RYv_guV0oGGCcxDcEiJ_-30" target="RYv_guV0oGGCcxDcEiJ_-44">
          <mxGeometry relative="1" as="geometry" />
        </mxCell>
        <mxCell id="RYv_guV0oGGCcxDcEiJ_-46" value="Pagamento&lt;div&gt;realizado&lt;/div&gt;" style="edgeLabel;html=1;align=center;verticalAlign=middle;resizable=0;points=[];" connectable="0" vertex="1" parent="RYv_guV0oGGCcxDcEiJ_-45">
          <mxGeometry x="-0.1565" y="-1" relative="1" as="geometry">
            <mxPoint x="6" as="offset" />
          </mxGeometry>
        </mxCell>
        <mxCell id="RYv_guV0oGGCcxDcEiJ_-30" value="Disponibilizar chave PIX" style="rounded=1;whiteSpace=wrap;html=1;" vertex="1" parent="WIyWlLk6GJQsqaUBKTNV-1">
          <mxGeometry x="1875" y="226.62" width="120" height="50" as="geometry" />
        </mxCell>
        <mxCell id="7GlUSVLypJ4G9-vJ-Vu1-17" style="edgeStyle=orthogonalEdgeStyle;rounded=0;orthogonalLoop=1;jettySize=auto;html=1;exitX=1;exitY=0.5;exitDx=0;exitDy=0;entryX=0;entryY=0.5;entryDx=0;entryDy=0;" edge="1" parent="WIyWlLk6GJQsqaUBKTNV-1" source="RYv_guV0oGGCcxDcEiJ_-44" target="RYv_guV0oGGCcxDcEiJ_-53">
          <mxGeometry relative="1" as="geometry">
            <Array as="points">
              <mxPoint x="2292" y="233" />
              <mxPoint x="2292" y="318" />
            </Array>
          </mxGeometry>
        </mxCell>
        <mxCell id="RYv_guV0oGGCcxDcEiJ_-44" value="Disponibilizar arquivo de instalação do jogo" style="rounded=1;whiteSpace=wrap;html=1;" vertex="1" parent="WIyWlLk6GJQsqaUBKTNV-1">
          <mxGeometry x="2143" y="226.49" width="120" height="50" as="geometry" />
        </mxCell>
        <mxCell id="RYv_guV0oGGCcxDcEiJ_-55" style="edgeStyle=orthogonalEdgeStyle;rounded=0;orthogonalLoop=1;jettySize=auto;html=1;exitX=1;exitY=0.5;exitDx=0;exitDy=0;" edge="1" parent="WIyWlLk6GJQsqaUBKTNV-1" source="RYv_guV0oGGCcxDcEiJ_-53" target="RYv_guV0oGGCcxDcEiJ_-54">
          <mxGeometry relative="1" as="geometry" />
        </mxCell>
        <mxCell id="RYv_guV0oGGCcxDcEiJ_-57" value="Não" style="edgeLabel;html=1;align=center;verticalAlign=middle;resizable=0;points=[];" connectable="0" vertex="1" parent="RYv_guV0oGGCcxDcEiJ_-55">
          <mxGeometry x="-0.0691" y="1" relative="1" as="geometry">
            <mxPoint x="-22" as="offset" />
          </mxGeometry>
        </mxCell>
        <mxCell id="7GlUSVLypJ4G9-vJ-Vu1-23" style="edgeStyle=orthogonalEdgeStyle;rounded=0;orthogonalLoop=1;jettySize=auto;html=1;exitX=0.5;exitY=1;exitDx=0;exitDy=0;entryX=0;entryY=0.5;entryDx=0;entryDy=0;" edge="1" parent="WIyWlLk6GJQsqaUBKTNV-1" source="RYv_guV0oGGCcxDcEiJ_-53" target="RYv_guV0oGGCcxDcEiJ_-56">
          <mxGeometry relative="1" as="geometry" />
        </mxCell>
        <mxCell id="7GlUSVLypJ4G9-vJ-Vu1-24" value="Sim" style="edgeLabel;html=1;align=center;verticalAlign=middle;resizable=0;points=[];" connectable="0" vertex="1" parent="7GlUSVLypJ4G9-vJ-Vu1-23">
          <mxGeometry x="-0.921" relative="1" as="geometry">
            <mxPoint as="offset" />
          </mxGeometry>
        </mxCell>
        <mxCell id="RYv_guV0oGGCcxDcEiJ_-53" value="Avaliar o site?" style="rhombus;whiteSpace=wrap;html=1;" vertex="1" parent="WIyWlLk6GJQsqaUBKTNV-1">
          <mxGeometry x="2342" y="257.62" width="170" height="121.25" as="geometry" />
        </mxCell>
        <mxCell id="RYv_guV0oGGCcxDcEiJ_-54" value="Fim da operação" style="rounded=1;whiteSpace=wrap;html=1;" vertex="1" parent="WIyWlLk6GJQsqaUBKTNV-1">
          <mxGeometry x="2592" y="293.25" width="120" height="50" as="geometry" />
        </mxCell>
        <mxCell id="RYv_guV0oGGCcxDcEiJ_-60" style="edgeStyle=orthogonalEdgeStyle;rounded=0;orthogonalLoop=1;jettySize=auto;html=1;exitX=0.5;exitY=0;exitDx=0;exitDy=0;entryX=0.5;entryY=1;entryDx=0;entryDy=0;" edge="1" parent="WIyWlLk6GJQsqaUBKTNV-1" source="RYv_guV0oGGCcxDcEiJ_-56" target="RYv_guV0oGGCcxDcEiJ_-54">
          <mxGeometry relative="1" as="geometry" />
        </mxCell>
        <mxCell id="RYv_guV0oGGCcxDcEiJ_-56" value="Exibir campos de feedback" style="rounded=1;whiteSpace=wrap;html=1;" vertex="1" parent="WIyWlLk6GJQsqaUBKTNV-1">
          <mxGeometry x="2592" y="419.86" width="120" height="50" as="geometry" />
        </mxCell>
        <mxCell id="RYv_guV0oGGCcxDcEiJ_-66" style="edgeStyle=orthogonalEdgeStyle;rounded=0;orthogonalLoop=1;jettySize=auto;html=1;exitX=1;exitY=0.5;exitDx=0;exitDy=0;entryX=0;entryY=0.5;entryDx=0;entryDy=0;" edge="1" parent="WIyWlLk6GJQsqaUBKTNV-1" source="RYv_guV0oGGCcxDcEiJ_-64" target="RYv_guV0oGGCcxDcEiJ_-65">
          <mxGeometry relative="1" as="geometry" />
        </mxCell>
        <mxCell id="RYv_guV0oGGCcxDcEiJ_-67" value="Sim" style="edgeLabel;html=1;align=center;verticalAlign=middle;resizable=0;points=[];" connectable="0" vertex="1" parent="RYv_guV0oGGCcxDcEiJ_-66">
          <mxGeometry x="-0.1476" y="-1" relative="1" as="geometry">
            <mxPoint x="-26" y="-1" as="offset" />
          </mxGeometry>
        </mxCell>
        <mxCell id="RYv_guV0oGGCcxDcEiJ_-70" style="edgeStyle=orthogonalEdgeStyle;rounded=0;orthogonalLoop=1;jettySize=auto;html=1;exitX=0.5;exitY=1;exitDx=0;exitDy=0;entryX=0;entryY=0.5;entryDx=0;entryDy=0;" edge="1" parent="WIyWlLk6GJQsqaUBKTNV-1" source="RYv_guV0oGGCcxDcEiJ_-64" target="RYv_guV0oGGCcxDcEiJ_-69">
          <mxGeometry relative="1" as="geometry" />
        </mxCell>
        <mxCell id="RYv_guV0oGGCcxDcEiJ_-71" value="Não" style="edgeLabel;html=1;align=center;verticalAlign=middle;resizable=0;points=[];" connectable="0" vertex="1" parent="RYv_guV0oGGCcxDcEiJ_-70">
          <mxGeometry x="-0.7554" relative="1" as="geometry">
            <mxPoint as="offset" />
          </mxGeometry>
        </mxCell>
        <mxCell id="RYv_guV0oGGCcxDcEiJ_-64" value="Há um cartão cadastrado?" style="rhombus;whiteSpace=wrap;html=1;" vertex="1" parent="WIyWlLk6GJQsqaUBKTNV-1">
          <mxGeometry x="1875" y="330.24" width="170" height="121.25" as="geometry" />
        </mxCell>
        <mxCell id="RYv_guV0oGGCcxDcEiJ_-68" style="edgeStyle=orthogonalEdgeStyle;rounded=0;orthogonalLoop=1;jettySize=auto;html=1;exitX=0.5;exitY=0;exitDx=0;exitDy=0;entryX=0.5;entryY=1;entryDx=0;entryDy=0;" edge="1" parent="WIyWlLk6GJQsqaUBKTNV-1" source="RYv_guV0oGGCcxDcEiJ_-65" target="RYv_guV0oGGCcxDcEiJ_-44">
          <mxGeometry relative="1" as="geometry" />
        </mxCell>
        <mxCell id="RYv_guV0oGGCcxDcEiJ_-65" value="Pagamento realizado" style="rounded=1;whiteSpace=wrap;html=1;" vertex="1" parent="WIyWlLk6GJQsqaUBKTNV-1">
          <mxGeometry x="2143" y="365.87" width="120" height="50" as="geometry" />
        </mxCell>
        <mxCell id="RYv_guV0oGGCcxDcEiJ_-75" style="edgeStyle=orthogonalEdgeStyle;rounded=0;orthogonalLoop=1;jettySize=auto;html=1;exitX=0.5;exitY=1;exitDx=0;exitDy=0;" edge="1" parent="WIyWlLk6GJQsqaUBKTNV-1" source="RYv_guV0oGGCcxDcEiJ_-69" target="RYv_guV0oGGCcxDcEiJ_-74">
          <mxGeometry relative="1" as="geometry" />
        </mxCell>
        <mxCell id="RYv_guV0oGGCcxDcEiJ_-69" value="Pedir dados do cartão" style="rounded=1;whiteSpace=wrap;html=1;" vertex="1" parent="WIyWlLk6GJQsqaUBKTNV-1">
          <mxGeometry x="1990" y="499.49" width="120" height="50" as="geometry" />
        </mxCell>
        <mxCell id="7GlUSVLypJ4G9-vJ-Vu1-20" style="edgeStyle=orthogonalEdgeStyle;rounded=0;orthogonalLoop=1;jettySize=auto;html=1;exitX=1;exitY=0.5;exitDx=0;exitDy=0;entryX=0.5;entryY=1;entryDx=0;entryDy=0;" edge="1" parent="WIyWlLk6GJQsqaUBKTNV-1" source="RYv_guV0oGGCcxDcEiJ_-74" target="RYv_guV0oGGCcxDcEiJ_-65">
          <mxGeometry relative="1" as="geometry" />
        </mxCell>
        <mxCell id="7GlUSVLypJ4G9-vJ-Vu1-21" value="Sim" style="edgeLabel;html=1;align=center;verticalAlign=middle;resizable=0;points=[];" connectable="0" vertex="1" parent="7GlUSVLypJ4G9-vJ-Vu1-20">
          <mxGeometry x="-0.605" relative="1" as="geometry">
            <mxPoint x="-43" y="-1" as="offset" />
          </mxGeometry>
        </mxCell>
        <mxCell id="qe04x3mOyRm4tF5T4k0E-21" style="edgeStyle=orthogonalEdgeStyle;rounded=0;orthogonalLoop=1;jettySize=auto;html=1;entryX=1;entryY=0.5;entryDx=0;entryDy=0;" edge="1" parent="WIyWlLk6GJQsqaUBKTNV-1" source="RYv_guV0oGGCcxDcEiJ_-74" target="RYv_guV0oGGCcxDcEiJ_-78">
          <mxGeometry relative="1" as="geometry" />
        </mxCell>
        <mxCell id="fA4EnLWFK2wPFM1SBRzB-0" value="Não" style="edgeLabel;html=1;align=center;verticalAlign=middle;resizable=0;points=[];" vertex="1" connectable="0" parent="qe04x3mOyRm4tF5T4k0E-21">
          <mxGeometry x="-0.7082" y="2" relative="1" as="geometry">
            <mxPoint x="-6" y="-3" as="offset" />
          </mxGeometry>
        </mxCell>
        <mxCell id="RYv_guV0oGGCcxDcEiJ_-74" value="Os dados estão corretos?" style="rhombus;whiteSpace=wrap;html=1;" vertex="1" parent="WIyWlLk6GJQsqaUBKTNV-1">
          <mxGeometry x="1965" y="592.49" width="170" height="121.25" as="geometry" />
        </mxCell>
        <mxCell id="RYv_guV0oGGCcxDcEiJ_-83" style="edgeStyle=orthogonalEdgeStyle;rounded=0;orthogonalLoop=1;jettySize=auto;html=1;exitX=0.5;exitY=0;exitDx=0;exitDy=0;entryX=0;entryY=0.5;entryDx=0;entryDy=0;" edge="1" parent="WIyWlLk6GJQsqaUBKTNV-1" source="RYv_guV0oGGCcxDcEiJ_-78" target="RYv_guV0oGGCcxDcEiJ_-69">
          <mxGeometry relative="1" as="geometry" />
        </mxCell>
        <mxCell id="RYv_guV0oGGCcxDcEiJ_-78" value="Mostrar erro" style="rounded=1;whiteSpace=wrap;html=1;" vertex="1" parent="WIyWlLk6GJQsqaUBKTNV-1">
          <mxGeometry x="1769" y="628.12" width="120" height="50" as="geometry" />
        </mxCell>
        <mxCell id="RYv_guV0oGGCcxDcEiJ_-86" style="edgeStyle=orthogonalEdgeStyle;rounded=0;orthogonalLoop=1;jettySize=auto;html=1;exitX=1;exitY=0.5;exitDx=0;exitDy=0;entryX=0;entryY=0.5;entryDx=0;entryDy=0;" edge="1" parent="WIyWlLk6GJQsqaUBKTNV-1" source="RYv_guV0oGGCcxDcEiJ_-84" target="7GlUSVLypJ4G9-vJ-Vu1-7">
          <mxGeometry relative="1" as="geometry">
            <mxPoint x="941" y="317" as="targetPoint" />
          </mxGeometry>
        </mxCell>
        <mxCell id="7GlUSVLypJ4G9-vJ-Vu1-6" style="edgeStyle=orthogonalEdgeStyle;rounded=0;orthogonalLoop=1;jettySize=auto;html=1;exitX=0.5;exitY=0;exitDx=0;exitDy=0;entryX=0;entryY=0.5;entryDx=0;entryDy=0;" edge="1" parent="WIyWlLk6GJQsqaUBKTNV-1" source="RYv_guV0oGGCcxDcEiJ_-84" target="7GlUSVLypJ4G9-vJ-Vu1-1">
          <mxGeometry relative="1" as="geometry">
            <Array as="points">
              <mxPoint x="856" y="260" />
              <mxPoint x="1251" y="260" />
              <mxPoint x="1251" y="317" />
            </Array>
          </mxGeometry>
        </mxCell>
        <mxCell id="7GlUSVLypJ4G9-vJ-Vu1-18" style="edgeStyle=orthogonalEdgeStyle;rounded=0;orthogonalLoop=1;jettySize=auto;html=1;exitX=0.5;exitY=0;exitDx=0;exitDy=0;entryX=0.5;entryY=1;entryDx=0;entryDy=0;" edge="1" parent="WIyWlLk6GJQsqaUBKTNV-1" source="RYv_guV0oGGCcxDcEiJ_-84" target="7GlUSVLypJ4G9-vJ-Vu1-8">
          <mxGeometry relative="1" as="geometry">
            <Array as="points">
              <mxPoint x="856" y="260" />
              <mxPoint x="781" y="260" />
            </Array>
          </mxGeometry>
        </mxCell>
        <mxCell id="vYOpSd9B1aAu_Q23RFO4-1" style="edgeStyle=orthogonalEdgeStyle;rounded=0;orthogonalLoop=1;jettySize=auto;html=1;" edge="1" parent="WIyWlLk6GJQsqaUBKTNV-1" source="RYv_guV0oGGCcxDcEiJ_-84" target="vYOpSd9B1aAu_Q23RFO4-0">
          <mxGeometry relative="1" as="geometry">
            <Array as="points">
              <mxPoint x="856" y="260" />
              <mxPoint x="921" y="260" />
            </Array>
          </mxGeometry>
        </mxCell>
        <mxCell id="RYv_guV0oGGCcxDcEiJ_-84" value="Tela principal" style="rounded=1;whiteSpace=wrap;html=1;" vertex="1" parent="WIyWlLk6GJQsqaUBKTNV-1">
          <mxGeometry x="806" y="299" width="100" height="37.5" as="geometry" />
        </mxCell>
        <mxCell id="7GlUSVLypJ4G9-vJ-Vu1-1" value="Acessa o carrinho" style="rounded=1;whiteSpace=wrap;html=1;" vertex="1" parent="WIyWlLk6GJQsqaUBKTNV-1">
          <mxGeometry x="1281" y="292" width="120" height="50" as="geometry" />
        </mxCell>
        <mxCell id="7GlUSVLypJ4G9-vJ-Vu1-7" value="Exibir jogos disponíveis" style="rounded=1;whiteSpace=wrap;html=1;" vertex="1" parent="WIyWlLk6GJQsqaUBKTNV-1">
          <mxGeometry x="961" y="299" width="100" height="37.5" as="geometry" />
        </mxCell>
        <mxCell id="7GlUSVLypJ4G9-vJ-Vu1-8" value="Acessar o histórico de compras" style="rounded=1;whiteSpace=wrap;html=1;" vertex="1" parent="WIyWlLk6GJQsqaUBKTNV-1">
          <mxGeometry x="730" y="169" width="103" height="47.5" as="geometry" />
        </mxCell>
        <mxCell id="7GlUSVLypJ4G9-vJ-Vu1-9" value="Pagamento" style="rounded=1;whiteSpace=wrap;html=1;" vertex="1" parent="WIyWlLk6GJQsqaUBKTNV-1">
          <mxGeometry x="1448" y="292.49" width="120" height="50" as="geometry" />
        </mxCell>
        <mxCell id="7GlUSVLypJ4G9-vJ-Vu1-26" value="&lt;font style=&quot;font-size: 63px;&quot;&gt;CLIENTE&lt;/font&gt;" style="text;html=1;align=center;verticalAlign=middle;whiteSpace=wrap;rounded=0;" vertex="1" parent="WIyWlLk6GJQsqaUBKTNV-1">
          <mxGeometry x="208" y="39" width="290" height="130" as="geometry" />
        </mxCell>
        <mxCell id="7GlUSVLypJ4G9-vJ-Vu1-31" value="Cadastrar novo jogo" style="whiteSpace=wrap;html=1;rounded=1;" vertex="1" parent="WIyWlLk6GJQsqaUBKTNV-1">
          <mxGeometry x="1020" y="1031" width="120" height="60" as="geometry" />
        </mxCell>
        <mxCell id="7GlUSVLypJ4G9-vJ-Vu1-33" value="Solicitar ao adm para fazer alterações no sistema&amp;nbsp;" style="whiteSpace=wrap;html=1;rounded=1;" vertex="1" parent="WIyWlLk6GJQsqaUBKTNV-1">
          <mxGeometry x="705" y="905" width="120" height="60" as="geometry" />
        </mxCell>
        <mxCell id="7GlUSVLypJ4G9-vJ-Vu1-35" value="Solicitar ao adm para autorizar o lançamento do jogo" style="whiteSpace=wrap;html=1;rounded=1;" vertex="1" parent="WIyWlLk6GJQsqaUBKTNV-1">
          <mxGeometry x="945" y="905" width="120" height="60" as="geometry" />
        </mxCell>
        <mxCell id="qe04x3mOyRm4tF5T4k0E-2" value="Autorizar alteração no sistema" style="whiteSpace=wrap;html=1;rounded=1;" vertex="1" parent="WIyWlLk6GJQsqaUBKTNV-1">
          <mxGeometry x="705" y="1431" width="120" height="60" as="geometry" />
        </mxCell>
        <mxCell id="qe04x3mOyRm4tF5T4k0E-3" value="Aprovar novos jogos no sistema" style="whiteSpace=wrap;html=1;rounded=1;" vertex="1" parent="WIyWlLk6GJQsqaUBKTNV-1">
          <mxGeometry x="945" y="1431" width="120" height="60" as="geometry" />
        </mxCell>
        <mxCell id="qe04x3mOyRm4tF5T4k0E-4" value="Autorizar lançamento do jogo" style="whiteSpace=wrap;html=1;rounded=1;" vertex="1" parent="WIyWlLk6GJQsqaUBKTNV-1">
          <mxGeometry x="705" y="1531" width="120" height="60" as="geometry" />
        </mxCell>
        <mxCell id="qe04x3mOyRm4tF5T4k0E-5" value="Controlar acesso com permissões para usuários e desenvolvedores" style="whiteSpace=wrap;html=1;rounded=1;" vertex="1" parent="WIyWlLk6GJQsqaUBKTNV-1">
          <mxGeometry x="945" y="1531" width="120" height="60" as="geometry" />
        </mxCell>
        <mxCell id="qe04x3mOyRm4tF5T4k0E-15" value="&lt;font style=&quot;font-size: 42px;&quot;&gt;DEV&lt;/font&gt;" style="text;html=1;align=center;verticalAlign=middle;whiteSpace=wrap;rounded=0;" vertex="1" parent="WIyWlLk6GJQsqaUBKTNV-1">
          <mxGeometry x="1120" y="851" width="90" height="40" as="geometry" />
        </mxCell>
        <mxCell id="qe04x3mOyRm4tF5T4k0E-16" value="&lt;font style=&quot;font-size: 42px;&quot;&gt;ADM&lt;/font&gt;" style="text;html=1;align=center;verticalAlign=middle;whiteSpace=wrap;rounded=0;" vertex="1" parent="WIyWlLk6GJQsqaUBKTNV-1">
          <mxGeometry x="1120" y="1213.25" width="90" height="40" as="geometry" />
        </mxCell>
        <mxCell id="qe04x3mOyRm4tF5T4k0E-18" value="&lt;font style=&quot;font-size: 63px;&quot;&gt;DEV/ADM&lt;/font&gt;" style="text;html=1;align=center;verticalAlign=middle;whiteSpace=wrap;rounded=0;" vertex="1" parent="WIyWlLk6GJQsqaUBKTNV-1">
          <mxGeometry x="208" y="835" width="290" height="130" as="geometry" />
        </mxCell>
        <mxCell id="vYOpSd9B1aAu_Q23RFO4-0" value="Entrar para a equipe de jogos" style="rounded=1;whiteSpace=wrap;html=1;" vertex="1" parent="WIyWlLk6GJQsqaUBKTNV-1">
          <mxGeometry x="870" y="169" width="103" height="47.5" as="geometry" />
        </mxCell>
      </root>
    </mxGraphModel>
  </diagram>
</mxfile>
